# xmcd CD database file
#
# Track frame offsets:
#	150
#	15750
#	31218
#	44727
#	61913
#	89286
#	102705
#	123077
#	138088
#	166950
#	178808
#	192751
#	202572
#	215568
#
# Disc length: 3052 seconds
#
# Revision: 2
# Processed by: cddbd v1.5.2PL0 Copyright (c) Steve Scherf et al.
# Submitted via: CDex 1.51
#
DISCID=b40bea0e
DTITLE=Chet Baker - Vol.03 - My Funny Valentine
DYEAR=1900
DGENRE=Jazz
TTITLE0=Pro Defunctus
TTITLE1=Moonlight Becomes You
TTITLE2=Bockhanal
TTITLE3=Goodbye
TTITLE4=Russ Job
TTITLE5=I Get Along Without You Very Well
TTITLE6=Lullaby Of The Leaves
TTITLE7=I Fall In Love Too Easily
TTITLE8=A Dandy Line
TTITLE9=Westwood Walk
TTITLE10=Flash
TTITLE11=Speak Low
TTITLE12=Taking A Chance On Love
TTITLE13=Simbah
EXTD=
EXTT0=
EXTT1=
EXTT2=
EXTT3=
EXTT4=
EXTT5=
EXTT6=
EXTT7=
EXTT8=
EXTT9=
EXTT10=
EXTT11=
EXTT12=
EXTT13=
PLAYORDER=
